<svg viewBox="0 0 210 210" xmlns="http://www.w3.org/2000/svg" role="img" aria-label="GTO Insights">
  <defs>
    <linearGradient id="gtoHexRightIcon" x1="0%" y1="0%" x2="100%" y2="100%">
      <stop offset="0%" stop-color="#1f6fe0"/>
      <stop offset="100%" stop-color="#3fa9f5"/>
    </linearGradient>
    <linearGradient id="gtoHexLeftIcon" x1="0%" y1="0%" x2="100%" y2="100%">
      <stop offset="0%" stop-color="#0b1f3f"/>
      <stop offset="100%" stop-color="#132a52"/>
    </linearGradient>
    <linearGradient id="gtoTealIcon" x1="0%" y1="0%" x2="100%" y2="100%">
      <stop offset="0%" stop-color="#18c2c9"/>
      <stop offset="100%" stop-color="#5fe0d8"/>
    </linearGradient>
  </defs>

  <g>
    <clipPath id="gtoHexClipIcon">
      <path d="M105 6 L188 52 L188 158 L105 204 L22 158 L22 52 Z"/>
    </clipPath>
    <g clip-path="url(#gtoHexClipIcon)">
      <rect x="22" y="6" width="84" height="198" fill="url(#gtoHexLeftIcon)"/>
      <rect x="106" y="6" width="84" height="198" fill="url(#gtoHexRightIcon)"/>
    </g>
  </g>

  <path d="M60 74 C60 62 70 54 82 54 L128 54 C140 54 150 64 150 76 L150 100 L108 100 L108 76 C108 70 103 66 97 66 L82 66 C76 66 72 70 72 76 L72 134 C72 140 76 144 82 144 L97 144 C103 144 108 140 108 134 L108 122 L150 122 L150 136 C150 148 140 158 128 158 L82 158 C70 158 60 150 60 138 Z" fill="#ffffff"/>
  <path d="M108 100 L150 100 L150 136 C150 148 140 158 128 158 L108 158 Z" fill="url(#gtoTealIcon)"/>
</svg>
